<svg version="1.1" viewBox="0.0 0.0 960.0 720.0" fill="none" stroke="none" stroke-linecap="square" stroke-miterlimit="10" xmlns:xlink="http://www.w3.org/1999/xlink" xmlns="http://www.w3.org/2000/svg"><clipPath id="p.0"><path d="m0 0l960.0 0l0 720.0l-960.0 0l0 -720.0z" clip-rule="nonzero"/></clipPath><g clip-path="url(#p.0)"><path fill="#000000" fill-opacity="0.0" d="m0 0l960.0 0l0 720.0l-960.0 0z" fill-rule="evenodd"/><path fill="#1e3a5f" d="m336.2047 360.0l0 0c0 -79.415924 64.379364 -143.79527 143.79529 -143.79527l0 0c38.1369 0 74.71179 15.149811 101.67859 42.116653c26.966858 26.966858 42.1167 63.541748 42.1167 101.67862l0 0c0 79.415924 -64.37933 143.79529 -143.79529 143.79529l0 0c-79.415924 0 -143.79529 -64.379364 -143.79529 -143.79529z" fill-rule="evenodd"/><path stroke="#ff6b6b" stroke-width="5.971128608923885" stroke-linejoin="round" stroke-linecap="butt" d="m336.2047 360.0l0 0c0 -79.415924 64.379364 -143.79527 143.79529 -143.79527l0 0c38.1369 0 74.71179 15.149811 101.67859 42.116653c26.966858 26.966858 42.1167 63.541748 42.1167 101.67862l0 0c0 79.415924 -64.37933 143.79529 -143.79529 143.79529l0 0c-79.415924 0 -143.79529 -64.379364 -143.79529 -143.79529z" fill-rule="evenodd"/><path fill="#000000" fill-opacity="0.0" d="m352.6222 360.00803l0 0c0 -70.35324 57.032593 -127.38583 127.38583 -127.38583l0 0c33.78482 0 66.18588 13.420975 90.07535 37.310455c23.889526 23.889465 37.310486 56.290558 37.310486 90.07538l0 0c0 70.35324 -57.032593 127.38583 -127.38583 127.38583l0 0c-70.35324 0 -127.38583 -57.032593 -127.38583 -127.38583z" fill-rule="evenodd"/><path stroke="#61758f" stroke-width="4.482939632545932" stroke-linejoin="round" stroke-linecap="butt" d="m352.6222 360.00803l0 0c0 -70.35324 57.032593 -127.38583 127.38583 -127.38583l0 0c33.78482 0 66.18588 13.420975 90.07535 37.310455c23.889526 23.889465 37.310486 56.290558 37.310486 90.07538l0 0c0 70.35324 -57.032593 127.38583 -127.38583 127.38583l0 0c-70.35324 0 -127.38583 -57.032593 -127.38583 -127.38583z" fill-rule="evenodd"/><path fill="#000000" fill-opacity="0.0" d="m387.40936 359.99203l92.58267 -92.58267l92.58267 92.58267l-92.58267 92.58267z" fill-rule="evenodd"/><path stroke="#ffffff" stroke-width="5.971128608923885" stroke-linejoin="round" stroke-linecap="butt" d="m387.40936 359.99203l92.58267 -92.58267l92.58267 92.58267l-92.58267 92.58267z" fill-rule="evenodd"/><path fill="#3db953" d="m465.54523 272.57928l0 0c0 -7.9842224 6.472473 -14.456696 14.456696 -14.456696l0 0c3.834137 0 7.511261 1.5231018 10.222412 4.234253c2.7111511 2.7111816 4.2342834 6.388275 4.2342834 10.222443l0 0c0 7.984192 -6.4725037 14.456696 -14.456696 14.456696l0 0c-7.9842224 0 -14.456696 -6.4725037 -14.456696 -14.456696z" fill-rule="evenodd"/><path stroke="#3db953" stroke-width="1.4960629921259843" stroke-linejoin="round" stroke-linecap="butt" d="m465.54523 272.57928l0 0c0 -7.9842224 6.472473 -14.456696 14.456696 -14.456696l0 0c3.834137 0 7.511261 1.5231018 10.222412 4.234253c2.7111511 2.7111816 4.2342834 6.388275 4.2342834 10.222443l0 0c0 7.984192 -6.4725037 14.456696 -14.456696 14.456696l0 0c-7.9842224 0 -14.456696 -6.4725037 -14.456696 -14.456696z" fill-rule="evenodd"/><path fill="#fdc829" d="m375.257 360.00192l0 0c0 -7.9842224 6.472473 -14.456696 14.456696 -14.456696l0 0c3.834137 0 7.511261 1.5231018 10.222412 4.234253c2.7111511 2.7111511 4.234253 6.388275 4.234253 10.222443l0 0c0 7.984192 -6.472473 14.456696 -14.456665 14.456696l0 0c-7.9842224 0 -14.456696 -6.4725037 -14.456696 -14.456696z" fill-rule="evenodd"/><path stroke="#fdc829" stroke-width="1.4960629921259843" stroke-linejoin="round" stroke-linecap="butt" d="m375.257 360.00192l0 0c0 -7.9842224 6.472473 -14.456696 14.456696 -14.456696l0 0c3.834137 0 7.511261 1.5231018 10.222412 4.234253c2.7111511 2.7111511 4.234253 6.388275 4.234253 10.222443l0 0c0 7.984192 -6.472473 14.456696 -14.456665 14.456696l0 0c-7.9842224 0 -14.456696 -6.4725037 -14.456696 -14.456696z" fill-rule="evenodd"/><path fill="#f6626d" d="m555.2572 360.00192l0 0c0 -7.9842224 6.472473 -14.456696 14.456726 -14.456696l0 0c3.8341064 0 7.5112305 1.5231018 10.222412 4.234253c2.7111206 2.7111511 4.234253 6.388275 4.234253 10.222443l0 0c0 7.984192 -6.472473 14.456696 -14.456665 14.456696l0 0c-7.984253 0 -14.456726 -6.4725037 -14.456726 -14.456696z" fill-rule="evenodd"/><path stroke="#f6626d" stroke-width="1.4960629921259843" stroke-linejoin="round" stroke-linecap="butt" d="m555.2572 360.00192l0 0c0 -7.9842224 6.472473 -14.456696 14.456726 -14.456696l0 0c3.8341064 0 7.5112305 1.5231018 10.222412 4.234253c2.7111206 2.7111511 4.234253 6.388275 4.234253 10.222443l0 0c0 7.984192 -6.472473 14.456696 -14.456665 14.456696l0 0c-7.984253 0 -14.456726 -6.4725037 -14.456726 -14.456696z" fill-rule="evenodd"/><path fill="#ffffff" d="m464.6191 435.3711l30.353912 0l0 16.001923l-30.353912 0z" fill-rule="evenodd"/><path stroke="#ffffff" stroke-width="0.7139107611548556" stroke-linejoin="round" stroke-linecap="butt" d="m464.6191 435.3711l30.353912 0l0 16.001923l-30.353912 0z" fill-rule="evenodd"/><path fill="#ffffff" d="m464.74152 451.31274l30.615723 0l-15.307861 15.760834z" fill-rule="evenodd"/><path stroke="#ffffff" stroke-width="0.7139107611548556" stroke-linejoin="round" stroke-linecap="butt" d="m464.74152 451.31274l30.615723 0l-15.307861 15.760834z" fill-rule="evenodd"/></g></svg>